<?xml version="1.0" encoding="UTF-8"?>
<svg id="Capa_1" xmlns="http://www.w3.org/2000/svg" version="1.1" xmlns:xlink="http://www.w3.org/1999/xlink" viewBox="0 0 129.84 22.81">
  <!-- Generator: Adobe Illustrator 29.6.0, SVG Export Plug-In . SVG Version: 2.1.1 Build 207)  -->
  <defs>
    <style>
      .st0 {
        clip-path: url(#clippath-6);
      }

      .st1 {
        clip-path: url(#clippath-7);
      }

      .st2 {
        clip-path: url(#clippath-4);
      }

      .st3 {
        clip-path: url(#clippath-9);
      }

      .st4 {
        fill: #afc5d1;
      }

      .st5 {
        fill: none;
      }

      .st6 {
        mix-blend-mode: overlay;
      }

      .st6, .st7 {
        isolation: isolate;
      }

      .st8 {
        clip-path: url(#clippath-1);
      }

      .st9 {
        clip-path: url(#clippath-5);
      }

      .st10 {
        clip-path: url(#clippath-8);
      }

      .st11 {
        clip-path: url(#clippath-3);
      }

      .st12 {
        fill: #b3b3b3;
      }

      .st13 {
        clip-path: url(#clippath-2);
      }

      .st14 {
        clip-path: url(#clippath);
      }
    </style>
    <clipPath id="clippath">
      <rect class="st5" x="35.14" width="94.7" height="22.81"/>
    </clipPath>
    <clipPath id="clippath-1">
      <rect class="st5" x="35.14" y="0" width="94.7" height="22.81"/>
    </clipPath>
    <clipPath id="clippath-2">
      <rect class="st5" x="35.14" y="6.3" width="14.87" height="16.21"/>
    </clipPath>
    <clipPath id="clippath-3">
      <rect class="st5" x="52.95" width="4.44" height="22.07"/>
    </clipPath>
    <clipPath id="clippath-4">
      <rect class="st5" x="59.96" y="6.32" width="15.63" height="16.14"/>
    </clipPath>
    <clipPath id="clippath-5">
      <rect class="st5" x="76.3" y="5.7" width="17.12" height="17.1"/>
    </clipPath>
    <clipPath id="clippath-6">
      <rect class="st5" x="95.52" y="6.3" width="4.44" height="15.77"/>
    </clipPath>
    <clipPath id="clippath-7">
      <rect class="st5" x="102.53" y="6.3" width="4.44" height="15.77"/>
    </clipPath>
    <clipPath id="clippath-8">
      <rect class="st5" x="109.54" y="6.3" width="14.47" height="16.15"/>
    </clipPath>
    <clipPath id="clippath-9">
      <rect class="st5" x="125.94" y="17.51" width="3.9" height="3.9"/>
    </clipPath>
  </defs>
  <g id="Grupo_56" class="st7">
    <g class="st14">
      <g id="Grupo_55">
        <g id="Grupo_54">
          <g class="st8">
            <g id="Grupo_53">
              <g id="Grupo_31" class="st6">
                <g id="Grupo_30">
                  <g class="st13">
                    <g id="Grupo_29">
                      <path id="Trazado_9" class="st4" d="M46.82,7.16c.99.46,1.83,1.2,2.39,2.14.55.95.82,2.04.8,3.14v9.74h-4.3v-2.9c-.43.95-1.1,1.78-1.94,2.39-.96.61-2.09.91-3.22.85-.95,0-1.89-.22-2.73-.66-.81-.41-1.49-1.03-1.97-1.79-.48-.79-.73-1.7-.71-2.62-.11-1.39.59-2.72,1.8-3.42,1.43-.75,3-1.19,4.61-1.28l4.07-.4v-.26c.04-.74-.22-1.47-.71-2.02-.55-.54-1.29-.82-2.06-.77-.69-.03-1.36.18-1.91.6-.46.37-.77.9-.85,1.48h-4.39c.13-1,.53-1.95,1.17-2.74.66-.78,1.52-1.38,2.48-1.74,1.12-.42,2.31-.62,3.5-.6,1.35-.04,2.7.22,3.93.77l.03.09ZM44.09,19.32c.53-.39.94-.92,1.17-1.54.27-.71.41-1.46.4-2.22v-.62l-2.47.25c-.63.06-1.25.18-1.86.34-.45.12-.86.36-1.2.68-.33.34-.51.81-.49,1.28-.01.45.11.9.34,1.28.22.37.55.67.94.86.42.2.88.3,1.34.28.66.01,1.31-.19,1.85-.57l-.02-.03Z"/>
                    </g>
                  </g>
                </g>
              </g>
              <g id="Grupo_34" class="st6">
                <g id="Grupo_33">
                  <g class="st11">
                    <g id="Grupo_32">
                      <rect id="Rectángulo_16" class="st4" x="52.95" y="0" width="4.44" height="22.07"/>
                    </g>
                  </g>
                </g>
              </g>
              <g id="Grupo_37" class="st6">
                <g id="Grupo_36">
                  <g class="st2">
                    <g id="Grupo_35">
                      <path id="Trazado_10" class="st4" d="M64.43,15.65c.06,1.04.45,2.04,1.11,2.85.59.64,1.43,1,2.3.97.67.03,1.33-.14,1.91-.48.51-.36.91-.87,1.14-1.45h4.39c-.43,1.51-1.39,2.81-2.71,3.67-1.43.87-3.08,1.31-4.75,1.25-1.44.03-2.87-.32-4.13-1.02-1.18-.67-2.14-1.67-2.76-2.88-.67-1.29-1-2.73-.97-4.18-.02-1.46.32-2.9,1-4.19.64-1.19,1.6-2.18,2.78-2.85,1.25-.7,2.67-1.05,4.1-1.02,1.43-.03,2.85.32,4.1,1.02,1.16.67,2.1,1.65,2.7,2.85.65,1.33.97,2.79.94,4.27,0,.4-.03.8-.09,1.19h-11.07ZM65.57,10.16c-.66.72-1.06,1.64-1.14,2.62h6.75c-.06-.95-.45-1.85-1.08-2.56-.59-.62-1.42-.97-2.28-.94-.82-.02-1.62.29-2.22.86l-.03.02Z"/>
                    </g>
                  </g>
                </g>
              </g>
              <g id="Grupo_40" class="st6">
                <g id="Grupo_39">
                  <g class="st9">
                    <g id="Grupo_38">
                      <path id="Trazado_11" class="st4" d="M76.31,6.33l3.64,4.96s3.85-.44,4.91,2.96v-2.82l-3.53-5.12h-5.02Z"/>
                      <path id="Trazado_12" class="st4" d="M92.78,5.71l-4.96,3.64s.44,3.85-2.96,4.91h2.81l5.12-3.53v-5.02Z"/>
                      <path id="Trazado_13" class="st4" d="M93.42,22.18l-3.64-4.96s-3.85.44-4.91-2.96v2.82l3.53,5.12h5.03Z"/>
                      <path id="Trazado_14" class="st4" d="M76.95,22.8l4.96-3.64s-.44-3.85,2.96-4.91h-2.82l-5.12,3.53v5.02Z"/>
                    </g>
                  </g>
                </g>
              </g>
              <g id="Grupo_43" class="st6">
                <g id="Grupo_42">
                  <g class="st0">
                    <g id="Grupo_41">
                      <rect id="Rectángulo_20" class="st4" x="95.52" y="6.3" width="4.44" height="15.77"/>
                    </g>
                  </g>
                </g>
              </g>
              <g id="Grupo_46" class="st6">
                <g id="Grupo_45">
                  <g class="st1">
                    <g id="Grupo_44">
                      <rect id="Rectángulo_22" class="st4" x="102.53" y="6.3" width="4.44" height="15.77"/>
                    </g>
                  </g>
                </g>
              </g>
              <g id="Grupo_49" class="st6">
                <g id="Grupo_48">
                  <g class="st10">
                    <g id="Grupo_47">
                      <path id="Trazado_15" class="st4" d="M111.84,21.31c-1.28-.85-2.12-2.22-2.3-3.75h4.38c.09.64.47,1.2,1.02,1.53.6.33,1.27.5,1.96.48.75.04,1.51-.11,2.19-.43.47-.21.77-.68.77-1.19,0-.3-.08-.59-.26-.83-.23-.27-.52-.48-.85-.6-.54-.21-1.09-.38-1.66-.51l-2.73-.6c-1.25-.2-2.43-.73-3.41-1.53-.76-.71-1.18-1.72-1.14-2.76,0-.93.32-1.82.91-2.53.65-.77,1.49-1.36,2.44-1.71,1.08-.41,2.23-.61,3.39-.6,1.11-.01,2.22.16,3.27.52.93.3,1.79.81,2.5,1.47.69.67,1.16,1.52,1.37,2.45h-4.38c-.17-.48-.53-.88-.99-1.11-.53-.27-1.11-.41-1.71-.4-.64-.02-1.28.12-1.85.4-.44.18-.73.6-.74,1.08,0,.41.23.79.6.97.6.29,1.24.5,1.91.62l2.73.6c1.32.22,2.56.79,3.58,1.65.78.78,1.2,1.85,1.16,2.96.02.97-.31,1.91-.94,2.64-.69.79-1.59,1.38-2.59,1.71-1.21.42-2.48.62-3.75.6-1.71.11-3.41-.28-4.89-1.14"/>
                    </g>
                  </g>
                </g>
              </g>
              <g id="Grupo_52" class="st6">
                <g id="Grupo_51">
                  <g class="st3">
                    <g id="Grupo_50">
                      <path id="Trazado_16" class="st12" d="M129.84,19.46c0,1.08-.87,1.95-1.95,1.95-1.08,0-1.95-.87-1.95-1.95,0-1.07.87-1.94,1.95-1.95,1.08,0,1.95.87,1.95,1.95"/>
                    </g>
                  </g>
                </g>
              </g>
            </g>
          </g>
        </g>
      </g>
    </g>
  </g>
  <g id="Grupo_65">
    <path id="Trazado_20" class="st4" d="M11.47,0L2.79,3.83l.78,12.23L11.47,0Z"/>
    <path id="Trazado_21" class="st4" d="M17.01,0l7.89,16.06.78-12.23L17.01,0Z"/>
    <path id="Trazado_22" class="st4" d="M14.24,6.17l-3.13,7.14h6.25l-3.13-7.14Z"/>
    <path id="Trazado_23" class="st4" d="M9.51,16.9l-1.25,2.95,5.96,2.95,6.06-2.95-1.25-2.95h-9.51Z"/>
  </g>
</svg>