<?xml version="1.0" encoding="UTF-8"?>
<svg id="Capa_1" xmlns="http://www.w3.org/2000/svg" version="1.1" viewBox="0 0 112 28">
  <!-- Generator: Adobe Illustrator 29.6.0, SVG Export Plug-In . SVG Version: 2.1.1 Build 207)  -->
  <defs>
    <style>
      .st0 {
        fill: #afc5d1;
      }

      .st1 {
        isolation: isolate;
      }
    </style>
  </defs>
  <g id="_Openiis_" class="st1">
    <g class="st1">
      <path class="st0" d="M11,19.51L1.65,15.49v-1.83l9.35-4.01v1.76l-7.54,3.17,7.54,3.17v1.76Z"/>
      <path class="st0" d="M21.08,22.22c-1.5,0-2.81-.31-3.93-.94-1.12-.63-1.98-1.52-2.59-2.67-.61-1.15-.92-2.49-.92-4.03s.31-2.9.92-4.04,1.48-2.03,2.59-2.66c1.12-.63,2.43-.94,3.93-.94s2.83.32,3.95.94c1.12.63,1.98,1.52,2.58,2.66s.91,2.49.91,4.04-.31,2.88-.92,4.03-1.48,2.04-2.59,2.67c-1.12.63-2.43.94-3.93.94ZM21.08,20.39c1.66,0,2.96-.52,3.91-1.56.94-1.04,1.41-2.46,1.41-4.25s-.47-3.23-1.41-4.26c-.94-1.03-2.24-1.55-3.91-1.55s-2.95.52-3.9,1.55c-.95,1.03-1.42,2.45-1.42,4.26s.47,3.23,1.42,4.26,2.25,1.55,3.9,1.55Z"/>
      <path class="st0" d="M31.48,26.4v-13.27h-1.06v-2.13h2.2v1.69h.77c.37-.62.87-1.1,1.5-1.42.64-.32,1.39-.49,2.27-.49,1.11,0,2.05.23,2.82.7.77.46,1.36,1.12,1.77,1.98s.61,1.87.61,3.04-.2,2.19-.6,3.04c-.4.86-.98,1.52-1.73,1.98s-1.65.7-2.69.7c-.87,0-1.63-.17-2.27-.52-.65-.35-1.14-.84-1.47-1.48h-.07v6.18s-2.05,0-2.05,0ZM36.85,20.46c1.1,0,1.95-.35,2.56-1.04s.91-1.67.91-2.92-.3-2.22-.91-2.92-1.46-1.04-2.56-1.04c-1,0-1.81.29-2.41.86-.6.58-.91,1.34-.91,2.29v1.61c0,.95.3,1.72.91,2.29s1.41.86,2.41.86h0Z"/>
      <path class="st0" d="M49.72,22.22c-1.15,0-2.15-.24-2.99-.71s-1.49-1.14-1.95-2.01-.69-1.88-.69-3.04.23-2.17.69-3.02,1.1-1.51,1.93-1.97,1.8-.7,2.92-.7,1.98.21,2.76.64,1.38,1.03,1.81,1.81c.43.78.64,1.71.64,2.79v.83h-8.76c.06,1.15.41,2.04,1.05,2.69s1.5.96,2.58.96c.75,0,1.38-.16,1.89-.47s.87-.77,1.06-1.38h2.09c-.27,1.14-.85,2.02-1.73,2.64s-1.98.93-3.29.93h0ZM46.14,15.34h6.71c-.1-.9-.43-1.61-1-2.11s-1.32-.75-2.25-.75-1.68.25-2.29.75-1,1.2-1.17,2.11Z"/>
      <path class="st0" d="M57.66,22v-8.87h-1.06v-2.13h2.2v1.69h.77c.38-.61.9-1.08,1.56-1.4s1.44-.49,2.33-.49c1.42,0,2.54.41,3.36,1.22s1.23,1.9,1.23,3.25v6.73h-2.05v-6.38c0-.99-.27-1.74-.8-2.25-.53-.51-1.31-.77-2.34-.77s-1.79.26-2.33.77c-.54.51-.81,1.26-.81,2.25v6.38h-2.06Z"/>
      <path class="st0" d="M72.07,9.5c-.34,0-.64-.12-.88-.37-.24-.24-.37-.54-.37-.88s.12-.64.37-.88.54-.37.88-.37.63.12.88.37c.25.24.37.54.37.88s-.12.64-.37.88c-.24.25-.54.37-.88.37ZM71.04,22v-11h2.05v11h-2.05Z"/>
      <path class="st0" d="M77.31,9.5c-.34,0-.63-.12-.88-.37-.25-.24-.37-.54-.37-.88s.12-.64.37-.88c.24-.24.54-.37.88-.37s.64.12.88.37c.24.24.37.54.37.88s-.12.64-.37.88-.54.37-.88.37ZM76.29,22v-11h2.05v11h-2.05Z"/>
      <path class="st0" d="M85.69,22.22c-1.53,0-2.73-.32-3.61-.95-.88-.64-1.36-1.52-1.45-2.66h2.04c.09.67.38,1.17.88,1.49s1.24.48,2.22.48c1.71,0,2.57-.54,2.57-1.61,0-.44-.13-.78-.39-1.02s-.71-.41-1.33-.52l-2.4-.44c-2.04-.38-3.06-1.35-3.06-2.92,0-1.01.38-1.81,1.16-2.4.77-.59,1.82-.88,3.15-.88s2.48.3,3.29.9c.81.6,1.27,1.44,1.38,2.53h-2c-.12-.61-.41-1.06-.85-1.36-.45-.29-1.07-.44-1.88-.44-.75,0-1.32.13-1.73.38-.41.26-.62.63-.62,1.12,0,.38.13.68.39.89s.69.38,1.27.49l2.4.46c1.08.2,1.86.54,2.37,1.04.5.5.75,1.17.75,2.02,0,1.08-.39,1.91-1.17,2.51s-1.91.9-3.37.9h-.01Z"/>
      <path class="st0" d="M91.23,22.24l5.46-15.33h1.87l-5.46,15.33h-1.87Z"/>
      <path class="st0" d="M100.54,19.51v-1.76l7.54-3.17-7.54-3.17v-1.76l9.35,4.01v1.83l-9.35,4.02Z"/>
    </g>
  </g>
</svg>